<svg width="231" height="182" viewBox="0 0 231 182" fill="none" xmlns="http://www.w3.org/2000/svg">
<path d="M210.369 100.254L72.4239 180.014L1 137.903V100.254L142.716 27.6162L210.369 61.7989V100.254Z" fill="#EBEBE5"/>
<path d="M72.4239 137.903L210.369 61.7989M72.4239 137.903L1 100.254M72.4239 137.903V149.392V180.014M72.4239 180.014L210.369 100.254V61.7989M72.4239 180.014L1 137.903V100.254M210.369 61.7989L142.716 27.6162L1 100.254" stroke="#285428" stroke-width="2" stroke-linecap="round"/>
<path d="M210.126 60.9576V28.9585H205.555V59.4692" stroke="#285428" stroke-width="1.5" stroke-linecap="round"/>
<path d="M28.1259 97.0786C62.1716 80.2919 142.628 21.8808 181.325 61.2496C147.629 89.1934 62.5153 140.535 28.1259 97.0786Z" stroke="#285428" stroke-width="2" stroke-linecap="round"/>
<path d="M42.5952 96.3119C70.3702 82.3004 135.757 35.6457 168.108 61.9571C140.77 84.0118 71.4582 125.815 42.5952 96.3119Z" fill="#FDB67B"/>
<path d="M193.539 16.0942C197.282 10.6326 212.035 3.0138 224.881 16.0942" stroke="#285428" stroke-width="2" stroke-linecap="round"/>
<path d="M188.473 9.86177C194.853 2.74022 214.282 -4.8493 229.938 9.86177" stroke="#285428" stroke-width="2" stroke-linecap="round"/>
<path d="M199.32 22.1014C202.29 18.2218 211.748 14.5589 219.287 22.1014" stroke="#285428" stroke-width="2" stroke-linecap="round"/>
</svg>
