<svg width="56" height="57" viewBox="0 0 56 57" fill="none" xmlns="http://www.w3.org/2000/svg">
<g clip-path="url(#clip0_5927_1481)">
<path d="M41.4812 26.65C40.2361 25.9992 38.8056 25.7947 37.4281 26.0706C36.0505 26.3465 34.8091 27.0861 33.9106 28.1662C30.8967 26.7219 28.3503 25.1822 26.3328 23.5847C25.1879 22.6753 24.2211 21.7327 23.6094 20.9423C23.775 19.5346 24.0713 18.1454 24.4943 16.7925C24.8861 15.5467 25.4042 14.3441 26.0404 13.2035C26.12 13.0617 26.1399 12.894 26.0959 12.7374C26.0518 12.5808 25.9473 12.4481 25.8055 12.3685C25.6636 12.289 25.4959 12.269 25.3393 12.3131C25.1827 12.3571 25.05 12.4616 24.9705 12.6035C24.2936 13.8169 23.7423 15.0962 23.325 16.4216C22.9771 17.5259 22.711 18.6544 22.529 19.7979C20.4249 19.5006 17.8059 20.5138 15.7137 22.4646C13.4738 24.5569 12.267 27.3319 12.6433 29.5313C12.6635 29.6495 12.7178 29.7592 12.7996 29.8468C12.8815 29.9345 12.9872 29.9962 13.1038 30.0244C14.7631 30.4236 16.8189 29.9257 18.6958 28.7341C19.2909 28.3553 19.8496 27.9222 20.3646 27.4401C21.0657 26.7888 21.6801 26.0499 22.1928 25.2419C22.292 28.3225 22.769 31.3792 23.6132 34.3435C22.3341 35.1288 21.3864 36.3549 20.949 37.7907C20.5116 39.2266 20.6147 40.7728 21.2388 42.1379C21.8629 43.5029 22.965 44.5924 24.3371 45.2009C25.7092 45.8094 27.2565 45.8948 28.6872 45.441C29.2033 45.2797 29.696 45.0513 30.1527 44.7617C31.4117 43.9612 32.3367 42.7301 32.7552 41.298C33.1736 39.8659 33.0569 38.3304 32.4269 36.978C31.7968 35.6255 30.6964 34.5483 29.3308 33.9473C27.9652 33.3462 26.4276 33.2623 25.0047 33.7112C24.912 33.74 24.8204 33.7722 24.7293 33.8052C24.2002 31.9258 23.1696 27.5322 23.4535 22.6319C24.1138 23.3158 24.8202 23.9534 25.5679 24.5404C27.619 26.1663 30.1867 27.7298 33.2148 29.19L33.1839 29.2459C32.6209 30.3232 32.3901 31.5432 32.5205 32.7518C32.6509 33.9603 33.1368 35.103 33.9166 36.0353C34.6965 36.9677 35.7353 37.6479 36.9017 37.9899C38.0682 38.3319 39.3098 38.3203 40.4697 37.9566C40.9855 37.7955 41.478 37.5672 41.9344 37.2778C42.8424 36.6982 43.5822 35.8901 44.0796 34.9346C44.5771 33.9791 44.8148 32.9097 44.7689 31.8334C44.723 30.7571 44.3951 29.7118 43.8181 28.8021C43.2411 27.8924 42.4353 27.1503 41.4812 26.65ZM19.5306 26.5481C17.7612 28.2016 15.5239 29.1115 13.8118 28.9088C13.7261 27.1868 14.7865 25.0164 16.5556 23.3641C18.2821 21.7492 20.4558 20.8454 22.1502 20.9909L22.2794 21.1943C22.2807 22.8847 21.2354 24.9563 19.5306 26.5481ZM31.5381 38.107C31.8297 39.0357 31.8393 40.0301 31.5657 40.9644C31.2921 41.8986 30.7475 42.7307 30.0009 43.3554C29.2543 43.9802 28.3392 44.3694 27.3714 44.474C26.4035 44.5785 25.4264 44.3937 24.5636 43.9428C23.7009 43.4919 22.9912 42.7953 22.5244 41.9411C22.0576 41.0868 21.8546 40.1133 21.9411 39.1437C22.0277 38.174 22.3999 37.2519 23.0106 36.4938C23.6214 35.7357 24.4432 35.1758 25.3722 34.8849C25.9886 34.6872 26.638 34.6137 27.283 34.6689C27.9279 34.7241 28.5555 34.9067 29.1293 35.2063C29.7032 35.5058 30.2118 35.9163 30.6258 36.4139C31.0398 36.9115 31.3509 37.4863 31.541 38.1051L31.5381 38.107ZM43.3246 30.6241C43.6647 31.7104 43.6176 32.8811 43.1913 33.9365C42.7649 34.992 41.9858 35.8669 40.9866 36.4122C39.9874 36.9575 38.83 37.1395 37.7117 36.927C36.5934 36.7146 35.5834 36.1209 34.8538 35.2471C34.1242 34.3734 33.7202 33.2737 33.7106 32.1354C33.701 30.9971 34.0865 29.8908 34.8013 29.0049C35.516 28.119 36.5159 27.5084 37.6305 27.2771C38.7451 27.0459 39.9053 27.2083 40.9136 27.7367C41.4866 28.0344 41.995 28.4426 42.4094 28.9379C42.8237 29.4332 43.1358 30.0056 43.3276 30.6222L43.3246 30.6241Z" fill="#EBEBE5" stroke="#EBEBE5" stroke-width="0.6"/>
<path d="M27.4604 43.1849C25.7731 43.3026 22.4407 41.0553 24.2537 37.4184" stroke="#EBEBE5" stroke-linecap="round"/>
<path d="M39.3197 35.6546C37.6325 35.7723 34.3001 33.525 36.113 29.8881" stroke="#EBEBE5" stroke-linecap="round"/>
</g>
<defs>
<clipPath id="clip0_5927_1481">
<rect width="40" height="40" fill="white" transform="translate(0.175781 22.335) rotate(-32.41)"/>
</clipPath>
</defs>
</svg>
