<svg width="41" height="41" viewBox="0 0 41 41" fill="none" xmlns="http://www.w3.org/2000/svg">
<path d="M14.2716 29.7706C15.8639 29.7707 17.1482 28.4095 17.1483 26.7401C17.1483 25.5073 15.7358 23.8122 14.8883 22.9132C14.7342 22.7335 14.5031 22.6564 14.2719 22.6564C14.0407 22.6564 13.8096 22.7591 13.6555 22.9132C12.8079 23.8121 11.3953 25.4814 11.3952 26.7399C11.3696 28.4093 12.6794 29.7705 14.2718 29.7706L14.2716 29.7706ZM14.2719 23.7607C15.4019 24.9936 16.1209 26.1494 16.1209 26.7401C16.1209 27.8445 15.299 28.7434 14.2717 28.7433C13.2444 28.7433 12.4226 27.8443 12.4226 26.7399C12.4226 26.1492 13.1419 24.9935 14.2719 23.7607Z" fill="#EBEBE5" stroke="#EBEBE5" stroke-width="0.7"/>
<path d="M20.7288 35.0317C22.1781 35.0317 23.3469 33.7928 23.347 32.2735C23.3471 31.1514 22.0615 29.6086 21.2901 28.7904C21.1499 28.6268 20.9395 28.5567 20.7291 28.5567C20.5187 28.5566 20.3083 28.6502 20.1681 28.7904C19.3966 29.6085 18.1109 31.1278 18.1109 32.2732C18.0876 33.7927 19.2797 35.0316 20.729 35.0317L20.7288 35.0317ZM20.7291 29.5618C21.7576 30.6839 22.412 31.7358 22.412 32.2734C22.4119 33.2786 21.6639 34.0967 20.7289 34.0967C19.7939 34.0966 19.0459 33.2785 19.046 32.2733C19.046 31.7357 19.7006 30.6838 20.7291 29.5618Z" fill="#EBEBE5" stroke="#EBEBE5" stroke-width="0.7"/>
<path d="M26.8413 28.5566C28.2494 28.5566 29.385 27.3529 29.3851 25.8767C29.3851 24.7865 28.1361 23.2875 27.3866 22.4925C27.2504 22.3336 27.0459 22.2654 26.8415 22.2654C26.6371 22.2654 26.4327 22.3562 26.2964 22.4925C25.5468 23.2874 24.2977 24.7636 24.2976 25.8765C24.275 27.3527 25.4332 28.5565 26.8414 28.5566L26.8413 28.5566ZM26.8415 23.242C27.8408 24.3323 28.4766 25.3543 28.4766 25.8767C28.4765 26.8533 27.7498 27.6482 26.8413 27.6481C25.9328 27.6481 25.2061 26.8532 25.2062 25.8765C25.2062 25.3542 25.8422 24.3322 26.8415 23.242Z" fill="#EBEBE5" stroke="#EBEBE5" stroke-width="0.7"/>
<path d="M20.183 4.03502C21.8316 4.0888 23.3091 4.76956 24.388 5.83747C25.108 6.55004 25.6506 7.43554 25.9482 8.42257C26.0838 8.87251 26.5657 9.15546 27.0242 9.05212C27.5348 8.93702 28.0697 8.88426 28.6197 8.90218C30.3384 8.95823 31.8717 9.69672 32.9613 10.8453C34.0477 11.9905 34.6925 13.5427 34.6399 15.2319L34.6395 15.2463C34.5826 16.942 33.8342 18.4549 32.6701 19.5299C31.5094 20.6018 29.9363 21.238 28.2243 21.1861L28.2097 21.1857C20.6284 20.9384 16.4392 21.1947 13.9444 21.3473C12.8758 21.4127 12.1149 21.4593 11.5075 21.4395C9.78882 21.3834 8.25553 20.6449 7.16594 19.4963C6.07954 18.3511 5.43474 16.7989 5.48739 15.1098L5.48778 15.0954C5.5446 13.3996 6.29305 11.8868 7.45714 10.8117C8.61782 9.7398 10.191 9.10363 11.9029 9.15558L11.9175 9.15596C12.3593 9.17035 12.7881 9.22973 13.1995 9.3293C13.5046 9.40314 13.8196 9.20422 13.8855 8.89735C14.155 7.64179 14.8115 6.53221 15.7227 5.6908C16.8866 4.61585 18.4654 3.97902 20.183 4.03502ZM23.7291 6.48396C22.8114 5.57564 21.5552 4.99659 20.1539 4.9509C18.69 4.90317 17.3458 5.44471 16.356 6.35887C15.3663 7.2729 14.7299 8.55992 14.6815 10.0032C14.6803 10.0387 14.6796 10.0658 14.6793 10.0867C14.6789 10.1176 14.6787 10.1464 14.6787 10.1734C14.6784 10.5123 14.3185 10.7321 14.0125 10.5864C13.6846 10.4304 13.3394 10.3067 12.9811 10.22C12.6336 10.1359 12.273 10.0854 11.9029 10.0723L11.8883 10.0718C10.4245 10.0241 9.08034 10.5656 8.09048 11.4798C7.10404 12.3908 6.46868 13.6723 6.41659 15.1098L6.41602 15.1242C6.36762 16.5685 6.91651 17.8948 7.84303 18.8714C8.76941 19.848 10.0738 20.4759 11.5366 20.5236C12.0894 20.5416 12.8382 20.4958 13.8898 20.4314C16.3938 20.2782 20.5975 20.0211 28.2243 20.2693L28.2389 20.2698C29.7027 20.3176 31.0469 19.776 32.0368 18.8618C33.0232 17.9509 33.6586 16.6693 33.7106 15.2319L33.7112 15.2175C33.7596 13.7731 33.2107 12.4469 32.2842 11.4702C31.3578 10.4937 30.0534 9.86574 28.5906 9.81806C28.1238 9.80283 27.6682 9.848 27.2316 9.94642C26.7822 10.0477 26.354 10.2056 25.9555 10.4121C25.6533 10.5687 25.2848 10.359 25.2748 10.0188C25.2344 8.64631 24.6534 7.39865 23.7291 6.48396Z" fill="#EBEBE5" stroke="#EBEBE5"/>
</svg>
