<svg width="41" height="41" viewBox="0 0 41 41" fill="none" xmlns="http://www.w3.org/2000/svg">
<path d="M23.2171 35.9544C20.6016 35.9544 18.4922 33.7184 18.4922 30.9763C18.4922 28.9513 20.8125 26.167 22.2047 24.6904C22.4578 24.3952 22.8375 24.2686 23.2172 24.2686C23.5969 24.2686 23.9766 24.4373 24.2297 24.6904C25.622 26.167 27.9422 28.9091 27.9422 30.9763C27.9841 33.7185 25.8325 35.9544 23.2169 35.9544H23.2171ZM23.2171 26.0826C21.3609 28.1077 20.1797 30.006 20.1797 30.9763C20.1797 32.7904 21.5297 34.267 23.2171 34.267C24.9046 34.267 26.2546 32.7904 26.2546 30.9763C26.2546 30.0061 25.0732 28.1077 23.2171 26.0826Z" fill="#EBEBE5"/>
<path d="M23.5101 33.569C22.0757 33.569 20.8945 32.1767 20.8945 30.4893C20.8945 30.0252 21.2743 29.6455 21.7383 29.6455C22.2023 29.6455 22.582 30.0252 22.582 30.4893C22.582 31.333 23.1305 32.008 23.6788 31.8392C24.1007 31.6704 24.6069 31.9235 24.7335 32.3453C24.8601 32.7672 24.6492 33.2734 24.2274 33.4C24.0164 33.5268 23.7633 33.5689 23.5101 33.5689L23.5101 33.569Z" fill="#EBEBE5"/>
<path d="M20.2507 18.9238C20.2507 16.5477 20.7043 14.7117 22.2605 12.9161M20.2507 18.475L19.9922 16.1475C19.8607 14.9646 19.3148 13.8664 18.4512 13.0474C18.4512 13.0474 15.5484 14.7981 12.736 11.7743C10.8278 9.72251 10.5517 7.15624 10.5712 5.71923C10.5734 5.57944 10.606 5.44181 10.6667 5.31589C10.7275 5.18998 10.8149 5.07883 10.923 4.99017C11.0311 4.90151 11.1572 4.83747 11.2926 4.80252C11.4279 4.76757 11.5693 4.76254 11.7068 4.78779C13.6064 5.14215 17.5086 6.04398 18.513 7.61501C19.8546 9.71402 18.513 12.7365 18.513 12.7365M21.9946 12.4677C21.9946 12.4677 21.117 10.5978 21.8834 8.7873C22.4271 7.50386 25.0717 6.34402 26.5659 5.77741C26.6996 5.72674 26.843 5.70654 26.9855 5.71828C27.128 5.73002 27.2662 5.7734 27.3898 5.84527C27.5134 5.91715 27.6195 6.01569 27.7002 6.13373C27.7809 6.25177 27.8343 6.38633 27.8565 6.52762C28.0277 7.68086 28.0506 9.54939 26.9274 11.2597C25.1389 13.984 23.0371 13.4001 23.0371 13.4001" stroke="#EBEBE5" stroke-width="1.7" stroke-miterlimit="2" stroke-linecap="round" stroke-linejoin="round"/>
<path d="M4.13672 19.0439L36.6639 19.0439" stroke="#EBEBE5" stroke-width="2.2" stroke-linecap="round"/>
<path d="M4.13672 24.2686L11.4886 24.2686" stroke="#EBEBE5" stroke-width="2.2" stroke-linecap="round"/>
<path d="M27.9414 24.2686L36.0425 24.2686" stroke="#EBEBE5" stroke-width="2.2" stroke-linecap="round"/>
<path d="M16.4001 27.9485C17.5582 27.9485 18.4922 26.9585 18.4922 25.7444C18.4922 24.8477 17.4648 23.615 16.8484 22.9612C16.7364 22.8305 16.5683 22.7744 16.4001 22.7744C16.232 22.7744 16.0639 22.8491 15.9518 22.9612C15.3354 23.615 14.3081 24.8291 14.3081 25.7444C14.2895 26.9585 15.2421 27.9485 16.4003 27.9485H16.4001ZM16.4001 23.5776C17.222 24.4742 17.745 25.3148 17.745 25.7444C17.745 26.5476 17.1473 27.2014 16.4001 27.2014C15.653 27.2014 15.0553 26.5476 15.0553 25.7444C15.0553 25.3148 15.5783 24.4742 16.4001 23.5776Z" fill="#EBEBE5" stroke="#EBEBE5" stroke-width="0.5"/>
</svg>
