<svg width="41" height="41" viewBox="0 0 41 41" fill="none" xmlns="http://www.w3.org/2000/svg">
<path d="M16.7578 21.9877C16.7578 20.8306 17.7024 19.8926 18.8674 19.8926C20.0325 19.8926 20.9771 20.8306 20.9771 21.9877C20.9771 23.1447 20.0325 24.0828 18.8674 24.0828" stroke="#EBEBE5" stroke-width="2" stroke-miterlimit="10" stroke-linecap="round" stroke-linejoin="round"/>
<path d="M2.98828 24.083H18.8661" stroke="#EBEBE5" stroke-width="2" stroke-miterlimit="10" stroke-linecap="round" stroke-linejoin="round"/>
<path d="M11.6523 29.3984C11.6523 30.6765 12.6958 31.7128 13.9828 31.7128C15.2699 31.7128 16.3133 30.6765 16.3133 29.3984C16.3133 28.1202 15.2699 27.084 13.9828 27.084" stroke="#EBEBE5" stroke-width="2" stroke-miterlimit="10" stroke-linecap="round" stroke-linejoin="round"/>
<path d="M3.57422 27.084H13.9827" stroke="#EBEBE5" stroke-width="2" stroke-miterlimit="10" stroke-linecap="round" stroke-linejoin="round"/>
<path d="M21.8726 28.0886H34.6975C37.0393 28.0886 38.938 25.8901 38.938 23.1782C38.938 20.4664 37.0393 18.2678 34.6975 18.2678C34.3338 18.2678 33.9811 18.3208 33.644 18.4206C33.704 18.0914 33.7364 17.75 33.7364 17.4003C33.7364 14.6884 31.8378 12.4899 29.496 12.4899C27.7057 12.4899 26.1757 13.7756 25.5535 15.5925C24.771 12.2353 22.1227 9.76416 18.9761 9.76416C15.2135 9.76416 12.1633 13.2963 12.1633 17.6533C12.1633 17.8852 12.1726 18.1151 12.1895 18.3419C11.9528 18.2946 11.7103 18.2684 11.4621 18.2684C9.70556 18.2684 8.19866 19.5052 7.55469 21.2672" stroke="#EBEBE5" stroke-width="2.1" stroke-miterlimit="10" stroke-linecap="round" stroke-linejoin="round"/>
</svg>
