<svg width="29" height="33" viewBox="0 0 29 33" fill="none" xmlns="http://www.w3.org/2000/svg">
<path d="M14.7335 31.7109L14.7335 25.2055L14.7335 18.7C14.7335 15.5941 15.8531 12.5929 17.8874 10.2457L19.2645 8.65725M14.7335 18.1134L14.3956 15.0711C14.2237 13.5248 13.5101 12.0893 12.3813 11.0188L7.48426 6.37676M12.8551 11.4683C12.8551 11.4683 13.769 8.17098 12.0153 5.42728C10.7024 3.37372 5.60151 2.19482 3.1184 1.73161C2.93866 1.69861 2.75389 1.70518 2.57695 1.75087C2.40001 1.79656 2.23515 1.88026 2.09386 1.99616C1.95257 2.11205 1.83823 2.25735 1.75882 2.42194C1.6794 2.58652 1.63682 2.76644 1.63402 2.94916C1.60846 4.82755 1.96943 8.1822 4.46376 10.8642C8.1401 14.8167 11.4112 13.2806 11.4112 13.2806M16.5663 11.7706C16.5663 11.7706 15.4192 9.32619 16.4211 6.95966C17.1318 5.28202 20.5887 3.76585 22.5419 3.02522C22.7167 2.95898 22.9041 2.93258 23.0904 2.94792C23.2767 2.96327 23.4572 3.01998 23.6188 3.11393C23.7804 3.20787 23.9191 3.33669 24.0246 3.49099C24.1301 3.64529 24.1999 3.82119 24.2289 4.00587C24.4527 5.51332 24.4826 7.9559 23.0144 10.1915C20.6766 13.7525 17.9291 12.9894 17.9291 12.9894M10.612 9.34178L7.15259 9.34178" stroke="#EBEBE5" stroke-width="1.7" stroke-miterlimit="2" stroke-linecap="round" stroke-linejoin="round"/>
<path d="M28.5993 14.159C28.6095 14.1227 28.5774 14.0886 28.5405 14.0966L24.6755 14.9389C24.6375 14.9472 24.6231 14.9937 24.6498 15.022L25.7209 16.1591L15.0679 26.4059L8.56405 23.065C8.47015 23.0168 8.3635 22.9993 8.25912 23.0149C8.15474 23.0305 8.05789 23.0784 7.98219 23.152L1.55902 29.3852C1.35898 29.5793 1.35427 29.8989 1.54848 30.0988C1.74255 30.2986 2.06182 30.3033 2.26172 30.1094L8.42538 24.129L14.9278 27.4689C15.0213 27.5168 15.1274 27.5344 15.2314 27.519C15.3353 27.5037 15.4319 27.4563 15.5076 27.3835L26.4149 16.894L27.444 17.9859C27.4706 18.0142 27.5179 18.0025 27.5285 17.9651L28.5993 14.159Z" fill="#EBEBE5" stroke="#EBEBE5" stroke-width="0.8"/>
</svg>
